<?xml version="1.0" standalone="no"?>
<!DOCTYPE svg PUBLIC "-//W3C//DTD SVG 20010904//EN"
 "http://www.w3.org/TR/2001/REC-SVG-20010904/DTD/svg10.dtd">
<svg version="1.0" xmlns="http://www.w3.org/2000/svg"
 width="1028.000000pt" height="483.000000pt" viewBox="0 0 1028.000000 483.000000"
 preserveAspectRatio="xMidYMid meet">

<g transform="translate(0.000000,483.000000) scale(0.100000,-0.100000)"
fill="#000000" stroke="none">
<path d="M2268 3263 c6 -2 18 -2 25 0 6 3 1 5 -13 5 -14 0 -19 -2 -12 -5z"/>
<path d="M4355 3259 c-125 -8 -153 -22 -271 -140 -46 -46 -84 -88 -84 -95 0
-6 -12 -21 -26 -35 -14 -13 -38 -51 -54 -85 -17 -34 -36 -67 -44 -73 -7 -6
-19 -31 -26 -56 -12 -43 -24 -61 -45 -65 -5 -2 -16 -5 -23 -8 -8 -2 -51 -2
-98 1 -46 2 -84 2 -84 -2 0 -4 -34 -18 -75 -31 -96 -30 -145 -76 -152 -144 -5
-42 -3 -48 34 -86 47 -47 93 -54 124 -18 23 26 24 42 3 62 -8 9 -12 21 -9 26
4 6 2 17 -4 24 -15 18 3 66 24 66 8 0 15 5 15 10 0 6 18 10 40 10 22 0 40 5
40 10 0 16 109 12 126 -5 13 -13 11 -26 -18 -112 -18 -54 -36 -100 -40 -101
-5 -2 -6 -8 -3 -12 6 -10 -24 -142 -34 -150 -3 -3 -7 -25 -8 -49 0 -24 -5 -46
-10 -50 -4 -3 -6 -82 -2 -176 6 -189 9 -202 80 -273 25 -26 50 -42 64 -42 13
0 27 -4 30 -10 9 -15 42 -12 48 4 3 8 2 16 -3 18 -5 2 -11 19 -12 38 -2 19 -7
38 -13 42 -13 9 -13 457 0 466 6 4 11 32 12 62 0 30 6 56 12 58 6 2 8 14 5 28
-4 13 6 73 21 133 26 105 28 109 57 115 48 9 128 7 128 -4 0 -5 23 -10 50 -10
28 0 50 -4 50 -10 0 -5 14 -10 30 -10 17 0 30 -4 30 -10 0 -5 11 -10 25 -10
18 0 28 -7 35 -26 6 -14 10 -163 10 -350 l0 -324 90 0 90 0 0 683 0 684 -22
19 c-20 17 -33 19 -113 13z m-50 -374 l0 -290 -29 -3 c-19 -2 -32 2 -38 12 -5
9 -13 14 -19 11 -5 -4 -16 1 -25 10 -9 9 -24 13 -35 10 -11 -4 -19 -2 -19 4 0
6 -18 11 -40 11 -22 0 -40 5 -40 10 0 6 -17 10 -38 10 -32 0 -39 4 -51 30 -11
26 -11 38 0 75 7 25 16 45 19 45 4 0 13 23 20 50 7 28 17 50 22 50 4 0 8 9 8
20 0 11 5 20 10 20 6 0 10 9 10 20 0 11 5 20 10 20 6 0 10 6 10 13 0 7 9 23
20 35 11 12 20 25 20 29 0 4 21 29 48 56 44 45 50 48 92 45 l45 -3 0 -290z"/>
<path d="M5060 3262 c0 -5 -12 -13 -27 -17 -16 -3 -64 -24 -108 -45 -116 -56
-243 -189 -281 -292 -3 -10 -10 -18 -14 -18 -5 0 -8 -25 -8 -55 0 -30 4 -55 8
-55 4 0 10 -14 14 -30 3 -18 26 -51 55 -80 41 -41 56 -50 86 -50 37 0 44 10
20 30 -8 7 -15 23 -15 36 0 12 -4 26 -10 29 -16 10 -11 150 7 218 10 34 25 71
35 81 10 11 18 23 18 28 0 12 73 77 88 78 6 0 12 5 12 10 0 6 9 10 20 10 11 0
20 5 20 10 0 11 49 14 74 4 14 -6 16 -72 16 -650 l0 -644 105 0 105 0 0 700 0
700 -79 0 c-43 0 -93 3 -110 6 -18 4 -31 2 -31 -4z"/>
<path d="M5855 3259 c-97 -7 -148 -21 -181 -50 -11 -11 -25 -19 -30 -19 -5 0
-30 -21 -55 -47 -45 -47 -71 -92 -84 -145 -4 -16 -11 -28 -15 -28 -4 0 -7 -34
-7 -75 0 -41 3 -75 6 -75 4 0 13 -21 20 -47 10 -35 30 -65 75 -110 34 -35 69
-63 79 -63 9 0 17 -4 17 -10 0 -5 9 -10 20 -10 11 0 20 -4 20 -10 0 -5 9 -10
20 -10 11 0 20 -4 20 -10 0 -5 9 -10 20 -10 11 0 20 -4 20 -10 0 -5 9 -10 20
-10 11 0 20 -4 20 -10 0 -5 9 -10 20 -10 11 0 20 -4 20 -10 0 -5 6 -10 13 -10
16 0 107 -91 107 -108 0 -7 5 -12 10 -12 6 0 10 -9 10 -19 0 -11 6 -21 13 -23
9 -4 12 -39 12 -133 0 -94 -3 -129 -12 -132 -7 -3 -13 -9 -13 -14 0 -6 -23
-33 -51 -60 l-50 -49 -100 0 c-59 0 -99 4 -99 10 0 6 -6 10 -13 10 -16 0 -87
71 -87 87 0 6 -6 13 -12 16 -9 2 -13 28 -13 82 0 54 4 80 13 83 6 2 12 10 12
18 0 26 47 64 80 64 40 0 39 23 -4 66 -18 18 -31 36 -28 39 3 3 -14 5 -37 5
-28 0 -40 -4 -35 -11 4 -8 0 -9 -15 -4 -11 3 -21 2 -21 -3 0 -11 -89 -102
-100 -102 -5 0 -6 -9 -3 -20 3 -11 1 -20 -4 -20 -5 0 -10 -12 -11 -27 -1 -16
-7 -29 -12 -31 -12 -4 -14 -112 -2 -112 4 0 15 -17 25 -39 31 -63 90 -119 172
-161 l78 -40 127 0 127 0 77 40 c76 38 166 119 166 147 0 7 4 13 8 13 5 0 15
12 22 28 16 32 30 314 16 323 -5 4 -6 14 -3 23 4 9 2 16 -4 16 -14 0 -39 26
-39 40 0 6 -22 33 -50 60 -27 27 -50 54 -50 60 0 7 -7 9 -16 6 -16 -6 -44 15
-44 34 0 7 -8 9 -20 5 -14 -5 -20 -2 -20 10 0 12 -6 15 -20 10 -11 -4 -20 -2
-20 4 0 6 -13 11 -30 11 -16 0 -30 5 -30 10 0 6 -9 10 -20 10 -11 0 -20 5 -20
10 0 6 -8 10 -18 10 -10 0 -24 9 -32 20 -8 11 -20 20 -28 20 -17 0 -82 66 -82
84 0 8 -4 16 -9 18 -13 4 -18 257 -6 266 6 4 15 16 21 27 6 11 20 24 32 30 12
5 22 13 22 17 0 5 9 8 20 8 11 0 20 5 20 10 0 6 30 10 70 10 40 0 70 -4 70
-10 0 -5 10 -10 23 -10 24 0 77 -47 77 -67 0 -6 5 -13 10 -15 20 -6 23 -109 6
-158 -9 -25 -16 -51 -16 -58 0 -20 26 -42 50 -42 25 0 90 60 90 84 0 9 3 16 8
16 10 0 6 90 -6 120 -17 42 -133 146 -177 160 -22 7 -44 15 -50 19 -5 3 -50 4
-100 0z"/>
<path d="M6800 3259 c0 -3 -26 -13 -57 -23 -74 -23 -177 -71 -193 -91 -7 -8
-17 -15 -23 -15 -15 0 -127 -111 -127 -126 0 -6 -9 -19 -20 -29 -11 -10 -20
-24 -20 -32 0 -7 -3 -13 -7 -13 -5 0 -9 -17 -10 -37 -1 -20 -6 -39 -10 -42
-12 -8 -14 -91 -2 -91 5 0 9 -8 9 -17 1 -22 101 -123 123 -123 8 0 17 -5 19
-11 2 -7 9 -10 15 -8 7 3 4 24 -9 64 -15 45 -18 78 -15 134 2 40 8 76 13 80 5
3 10 26 11 51 1 25 7 46 13 48 5 2 10 12 10 23 0 10 5 19 10 19 6 0 10 6 10
13 0 16 91 107 108 107 7 0 12 5 12 10 0 6 9 10 20 10 11 0 20 5 20 10 0 6 9
10 20 10 11 0 20 5 20 10 0 6 18 10 40 10 22 0 40 5 40 10 0 6 47 10 120 10
73 0 120 -4 120 -10 0 -5 14 -10 30 -10 17 0 30 -4 30 -10 0 -5 9 -10 20 -10
11 0 20 -4 20 -10 0 -5 5 -10 12 -10 16 0 68 -51 68 -67 0 -7 4 -13 8 -13 5 0
15 -12 23 -27 8 -16 18 -31 22 -34 5 -3 18 -46 31 -95 20 -81 22 -112 21 -338
-1 -169 -5 -251 -12 -253 -6 -2 -9 -12 -6 -22 7 -26 -29 -141 -43 -141 -7 0
-10 -8 -7 -20 4 -14 0 -20 -10 -20 -10 0 -13 -6 -10 -20 4 -14 0 -20 -11 -20
-10 0 -14 -5 -10 -11 3 -6 -11 -28 -31 -49 l-37 -38 -97 0 c-93 1 -97 2 -129
32 -36 33 -66 92 -58 113 3 7 -1 13 -8 13 -15 0 -32 72 -22 89 3 5 0 11 -6 13
-18 6 -19 359 -1 365 9 3 11 18 6 48 -3 24 0 66 6 92 19 80 65 218 73 221 4 2
8 12 8 23 0 10 5 19 10 19 6 0 10 6 10 13 0 6 14 27 31 45 l30 32 -70 0 c-44
0 -71 -4 -71 -11 0 -6 -5 -9 -12 -7 -24 8 -137 -123 -174 -199 -18 -40 -34
-79 -34 -88 0 -8 -3 -15 -7 -15 -5 0 -9 -21 -9 -46 -1 -26 -6 -49 -10 -53 -9
-6 -13 -451 -4 -451 3 0 16 -36 30 -80 14 -44 28 -80 32 -80 5 0 8 -6 8 -14 0
-7 29 -44 64 -80 63 -64 159 -126 196 -126 11 0 22 -4 25 -10 8 -13 142 -13
150 0 3 6 19 10 35 10 49 0 137 55 215 136 41 42 75 82 75 90 0 8 5 14 10 14
6 0 10 9 10 20 0 11 3 20 8 20 4 0 18 36 32 80 14 44 27 80 30 80 3 0 5 25 6
56 0 31 5 59 10 62 13 9 13 265 1 273 -5 4 -11 30 -12 59 -2 29 -8 57 -14 63
-6 6 -11 21 -11 33 0 13 -4 26 -10 29 -5 3 -10 14 -10 24 0 69 -169 260 -275
311 -33 16 -72 32 -87 35 -16 4 -28 10 -28 14 0 3 -72 6 -160 6 -88 0 -160 -3
-160 -6z"/>
<path d="M8122 3259 c-4 -4 -32 -14 -62 -24 -116 -37 -172 -71 -256 -157 -44
-46 -91 -105 -105 -133 -13 -27 -27 -51 -31 -53 -11 -5 -10 -112 1 -112 5 0
11 -14 15 -31 9 -46 93 -129 131 -129 25 0 30 4 30 25 0 14 -6 25 -12 25 -15
0 -15 0 -16 174 0 92 3 131 11 134 7 2 12 12 12 23 0 10 5 19 10 19 6 0 10 9
10 20 0 11 5 20 10 20 6 0 10 6 10 13 0 16 52 67 68 67 7 0 12 5 12 10 0 6 9
10 20 10 11 0 20 5 20 10 0 6 9 10 20 10 11 0 20 5 20 10 0 6 14 10 30 10 17
0 30 5 30 10 0 6 43 10 110 10 67 0 110 -4 110 -10 0 -5 23 -10 50 -10 28 0
50 -4 50 -10 0 -5 6 -10 13 -10 7 0 22 -8 33 -17 11 -10 29 -23 40 -29 10 -6
23 -20 29 -32 5 -12 13 -22 17 -22 5 0 8 -9 8 -20 0 -11 4 -20 8 -20 15 0 42
-116 42 -180 0 -69 -28 -210 -42 -210 -4 0 -8 -9 -8 -20 0 -11 -6 -20 -14 -20
-9 0 -12 -7 -9 -20 3 -11 0 -20 -6 -20 -6 0 -11 -7 -11 -16 0 -19 -24 -44 -42
-44 -8 0 -20 -9 -28 -20 -8 -11 -22 -20 -32 -20 -10 0 -18 -4 -18 -10 0 -11
-88 -14 -114 -4 -14 5 -16 43 -16 320 l0 314 -45 0 c-25 0 -45 -4 -45 -10 0
-5 -20 -10 -45 -10 l-45 0 0 -605 0 -605 90 0 90 0 2 268 3 267 73 3 c39 2 72
7 72 12 0 6 14 10 30 10 17 0 30 5 30 10 0 6 9 10 20 10 11 0 20 4 20 8 0 5
12 15 28 23 63 31 172 166 172 212 0 8 6 17 13 19 16 6 24 255 8 271 -6 6 -11
21 -11 33 0 12 -7 27 -15 34 -8 7 -15 18 -15 24 0 23 -95 107 -150 132 -62 28
-100 43 -123 49 -15 4 -27 10 -27 14 0 8 -269 8 -278 0z"/>
<path d="M1950 3180 c-259 -67 -454 -252 -542 -515 -20 -61 -23 -89 -22 -220
0 -133 3 -158 26 -227 78 -235 260 -417 493 -495 73 -25 94 -27 230 -27 137 0
157 3 230 28 153 52 277 139 369 259 105 137 156 288 156 462 0 296 -160 551
-425 680 -49 25 -119 51 -155 59 -93 22 -266 20 -360 -4z m365 -54 c136 -36
269 -121 363 -231 58 -68 129 -213 148 -305 34 -160 3 -356 -78 -500 -44 -77
-188 -219 -268 -263 -203 -111 -442 -115 -659 -11 -289 140 -450 490 -367 799
72 270 292 476 561 525 68 12 227 5 300 -14z"/>
<path d="M2078 3048 l-55 -63 -74 33 c-41 17 -77 32 -81 32 -3 0 -19 -37 -33
-81 l-28 -82 -84 6 -84 6 6 -77 c4 -42 8 -82 10 -89 5 -16 -10 -27 -75 -53
-30 -13 -58 -26 -63 -30 -4 -3 10 -38 31 -76 l38 -70 -57 -64 -57 -64 67 -50
c36 -27 67 -50 68 -51 2 -1 -8 -35 -22 -75 -14 -40 -25 -76 -25 -80 0 -4 36
-15 80 -25 89 -20 85 -16 96 -117 3 -38 8 -68 9 -68 2 0 38 7 80 15 43 8 81
12 86 10 4 -3 24 -34 44 -70 23 -42 40 -63 48 -58 7 4 35 24 64 45 29 21 58
38 66 38 7 0 42 -20 77 -45 l64 -45 39 68 c21 37 40 69 42 71 2 1 38 -5 80
-15 91 -21 90 -22 99 79 4 39 8 73 11 75 2 2 39 11 82 19 43 8 79 16 80 17 2
2 -8 36 -22 76 -14 40 -25 76 -25 80 0 4 31 29 68 56 l69 50 -54 59 c-29 33
-53 64 -53 69 0 4 16 39 36 77 20 38 35 71 33 72 -2 2 -35 17 -74 33 -78 34
-78 33 -63 152 l7 52 -88 0 -88 0 -24 80 c-12 44 -26 80 -30 80 -4 0 -40 -14
-80 -31 l-74 -32 -56 62 -56 62 -55 -63z m94 -82 l27 -33 -13 -111 c-11 -102
-11 -112 4 -112 12 0 24 27 46 102 28 100 30 103 72 127 25 13 47 20 52 15 5
-5 14 -29 21 -54 l12 -45 -56 -85 c-40 -62 -52 -88 -45 -97 6 -7 13 -13 17
-13 3 0 37 36 74 80 l68 80 50 0 c47 0 49 -1 49 -27 0 -57 -12 -72 -102 -134
-62 -42 -88 -66 -84 -76 3 -8 6 -17 6 -19 0 -2 46 19 102 47 l102 51 44 -21
c40 -20 43 -24 37 -49 -11 -45 -35 -58 -140 -76 -125 -22 -126 -22 -119 -41 5
-12 26 -15 117 -15 l111 0 33 -32 c18 -18 33 -35 33 -39 0 -3 -18 -19 -40 -34
l-40 -28 -106 28 c-88 22 -108 25 -115 14 -5 -8 -9 -16 -9 -19 0 -3 46 -23
102 -45 101 -40 102 -41 121 -88 11 -26 17 -50 15 -53 -3 -2 -28 -7 -56 -11
-51 -6 -51 -5 -135 60 -61 48 -87 63 -95 55 -8 -8 10 -33 64 -92 73 -80 74
-82 74 -134 0 -53 0 -54 -26 -48 -15 4 -38 9 -53 12 -22 5 -36 24 -79 105 -30
54 -57 99 -62 99 -23 0 -19 -30 15 -126 l37 -104 -26 -41 c-28 -41 -29 -41
-77 -6 -24 17 -28 28 -33 96 -11 130 -16 151 -35 151 -16 0 -19 -14 -24 -112
-7 -112 -7 -113 -39 -140 -42 -35 -58 -32 -83 14 l-20 37 37 110 c31 97 34
110 20 116 -9 3 -18 3 -20 -2 -1 -4 -24 -48 -50 -98 -47 -88 -47 -89 -97 -102
-27 -6 -50 -11 -51 -10 -1 1 -4 23 -7 48 -6 45 -6 45 68 126 51 55 73 86 69
97 -3 9 -10 16 -14 16 -4 0 -44 -29 -89 -65 -81 -66 -93 -70 -151 -59 -30 7
-31 8 -25 43 11 57 19 64 122 105 54 22 100 40 101 42 2 1 1 11 -2 22 -6 19
-9 19 -115 -8 -95 -24 -110 -25 -127 -13 -10 8 -28 21 -38 28 -19 14 -18 15 8
49 l27 35 117 3 c93 2 117 6 117 17 0 10 -35 22 -114 40 -112 26 -113 27 -132
64 l-19 37 44 22 45 21 99 -46 c55 -26 103 -47 106 -47 3 0 6 6 6 14 0 8 -38
42 -84 75 -66 48 -85 67 -90 92 -13 66 -11 69 47 69 l52 0 65 -80 c62 -76 82
-91 94 -71 3 5 -19 46 -49 92 -57 88 -61 102 -45 161 l10 36 43 -16 c23 -9 45
-21 49 -27 5 -5 22 -54 40 -107 19 -57 38 -98 45 -98 16 0 16 20 2 132 l-10
87 28 36 c15 19 33 35 38 34 6 0 22 -15 37 -33z"/>
<path d="M2115 2636 c-12 -9 -15 -19 -10 -35 9 -30 59 -26 63 6 4 29 -28 47
-53 29z"/>
<path d="M1991 2586 c-17 -20 -4 -56 18 -56 28 0 47 28 34 48 -14 23 -37 26
-52 8z"/>
<path d="M2224 2586 c-10 -25 0 -51 20 -54 27 -6 48 25 35 49 -12 22 -47 25
-55 5z"/>
<path d="M2102 2478 c-17 -17 -15 -53 3 -68 38 -31 96 27 65 65 -15 18 -51 20
-68 3z"/>
<path d="M1941 2461 c-8 -15 -7 -23 5 -35 26 -27 58 -12 52 25 -4 31 -42 38
-57 10z"/>
<path d="M2277 2474 c-15 -16 -7 -53 14 -59 27 -9 42 6 37 36 -3 24 -36 38
-51 23z"/>
<path d="M2005 2356 c-25 -18 -15 -50 16 -54 28 -3 43 16 33 42 -8 21 -30 26
-49 12z"/>
<path d="M2235 2356 c-25 -18 -15 -50 16 -54 28 -3 43 16 33 42 -8 21 -30 26
-49 12z"/>
<path d="M2104 2288 c-7 -22 19 -52 40 -45 17 6 29 34 23 51 -10 24 -54 21
-63 -6z"/>
<path d="M2951 2594 c0 -11 3 -14 6 -6 3 7 2 16 -1 19 -3 4 -6 -2 -5 -13z"/>
</g>
</svg>
